<svg xmlns="http://www.w3.org/2000/svg" width="86" height="90" viewBox="0 0 86 90">
  <metadata><?xpacket begin="﻿" id="W5M0MpCehiHzreSzNTczkc9d"?>
<x:xmpmeta xmlns:x="adobe:ns:meta/" x:xmptk="Adobe XMP Core 5.6-c138 79.159824, 2016/09/14-01:09:01        ">
   <rdf:RDF xmlns:rdf="http://www.w3.org/1999/02/22-rdf-syntax-ns#">
      <rdf:Description rdf:about=""/>
   </rdf:RDF>
</x:xmpmeta>
                                                                                                    
                                                                                                    
                                                                                                    
                                                                                                    
                                                                                                    
                                                                                                    
                                                                                                    
                                                                                                    
                                                                                                    
                                                                                                    
                                                                                                    
                                                                                                    
                                                                                                    
                                                                                                    
                                                                                                    
                                                                                                    
                                                                                                    
                                                                                                    
                                                                                                    
                                                                                                    
                           
<?xpacket end="w"?></metadata>
<defs>
    <style>
      .cls-1 {
        fill: #e1c178;
        fill-rule: evenodd;
      }
    </style>
  </defs>
  <path class="cls-1" d="M1436.73,394.282a28.359,28.359,0,1,0,28.3,28.359A28.326,28.326,0,0,0,1436.73,394.282Zm2.31,41.9v1.6a2.31,2.31,0,1,1-4.62,0v-1.617a8.052,8.052,0,0,1-3.57-2.2,2.308,2.308,0,1,1,3.35-3.177,3.441,3.441,0,0,0,2.51,1.083,3.472,3.472,0,0,0,0-6.943,8.1,8.1,0,0,1-2.31-15.851v-1.6a2.31,2.31,0,1,1,4.62,0v1.617a8.084,8.084,0,0,1,3.58,2.2,2.312,2.312,0,0,1-3.36,3.177,3.465,3.465,0,1,0-2.51,5.86A8.1,8.1,0,0,1,1439.04,436.178ZM1427.53,361a20.584,20.584,0,0,0-11.77,37.433,31.811,31.811,0,0,1,20.97-7.843c0.81,0,1.61.037,2.4,0.092a28.81,28.81,0,0,1,6.89-18.055A20.521,20.521,0,0,0,1427.53,361Zm3.81,16.567a1.507,1.507,0,0,1,0,3.013h-3.33v1.487h3.33a1.506,1.506,0,0,1,0,3.012h-3.33v1.837a1.505,1.505,0,1,1-3.01,0v-1.837h-3.34a1.506,1.506,0,0,1,0-3.012H1425V380.58h-3.34a1.507,1.507,0,0,1,0-3.013h1.82l-3.3-5.161a1.515,1.515,0,0,1,2.55-1.635l3.79,5.915,3.79-5.915a1.515,1.515,0,0,1,2.55,1.635l-3.32,5.161h1.8Zm36.57-11.351a25.109,25.109,0,0,0-25.09,24.961,32.108,32.108,0,0,1,25.31,25.329A25.146,25.146,0,0,0,1467.91,366.216Zm8.91,15.19a1.525,1.525,0,0,1-1.98.863,6.552,6.552,0,0,0-2.37-.441,7.015,7.015,0,0,0-6.08,3.784h6.47a1.525,1.525,0,0,1,0,3.049h-7.46a13.973,13.973,0,0,0,0,2.241h7.47a1.525,1.525,0,1,1,0,3.049h-6.47a7.066,7.066,0,0,0,6.09,3.784,6.277,6.277,0,0,0,1.94-.294,1.54,1.54,0,1,1,.92,2.939,9.513,9.513,0,0,1-2.86.441,10.273,10.273,0,0,1-9.44-6.833h-2.6a1.525,1.525,0,0,1,0-3.049h1.89a20.94,20.94,0,0,1,0-2.241h-1.89a1.525,1.525,0,0,1,0-3.049h2.6a10.252,10.252,0,0,1,9.44-6.833,9.3,9.3,0,0,1,3.46.661A1.482,1.482,0,0,1,1476.82,381.406Z" transform="translate(-1407 -361)"/>
</svg>
